<?xml version="1.0" encoding="UTF-8"?>
<svg width="1217px" height="660px" viewBox="0 0 1217 660" version="1.1" xmlns="http://www.w3.org/2000/svg" xmlns:xlink="http://www.w3.org/1999/xlink">
    <title>GOJ Heritage (Horizontal)</title>
    <defs>
        <rect id="path-1" x="0" y="0" width="500" height="500" rx="51"></rect>
    </defs>
    <g id="GOJ-Heritage-(Horizontal)" stroke="none" stroke-width="1" fill="none" fill-rule="evenodd">
        <g transform="translate(0.5, 0.5)">
            <g id="Frame">
                <path d="M367.492834,-267.281743 L872.492834,-267.281743 C900.659357,-267.281743 923.492834,-244.448265 923.492834,-216.281743 L923.492834,872.281743 C923.492834,900.448265 900.659357,923.281743 872.492834,923.281743 L367.492834,923.281743 C339.326312,923.281743 316.492834,900.448265 316.492834,872.281743 L316.492834,-216.281743 C316.492834,-244.448265 339.326312,-267.281743 367.492834,-267.281743 Z" fill="#F1EFDD" transform="translate(619.9928, 328) rotate(-90) translate(-619.9928, -328)"></path>
                <path d="M860.5,-255.5 C888.666522,-255.5 911.5,-234.646613 911.5,-208.922656 L911.5,866.922656 C911.5,892.646613 888.666522,913.5 860.5,913.5 L355.5,913.5 C327.333478,913.5 304.5,892.646613 304.5,866.922656 L304.5,-208.922656 C304.5,-234.646613 327.333478,-255.5 355.5,-255.5 L860.5,-255.5 Z M860,-232.5 L355,-232.5 C340.916739,-232.5 329.5,-222.077233 329.5,-209.220098 L329.5,866.220098 C329.5,879.077233 340.916739,889.5 355,889.5 L860,889.5 C874.083261,889.5 885.5,879.077233 885.5,866.220098 L885.5,-209.220098 C885.5,-222.077233 874.083261,-232.5 860,-232.5 Z" fill="#013300" fill-rule="nonzero" transform="translate(608, 329) rotate(-90) translate(-608, -329)"></path>
                <path d="M860,-278.5 C902.249783,-278.5 936.5,-247.234776 936.5,-208.667168 L936.5,866.667168 C936.5,905.234776 902.249783,936.5 860,936.5 L355,936.5 C312.750217,936.5 278.5,905.234776 278.5,866.667168 L278.5,-208.667168 C278.5,-247.234776 312.750217,-278.5 355,-278.5 L860,-278.5 Z M860,-255 L355,-255 C326.833478,-255 304,-234.146613 304,-208.422656 L304,867.422656 C304,893.146613 326.833478,914 355,914 L860,914 C888.166522,914 911,893.146613 911,867.422656 L911,-208.422656 C911,-234.146613 888.166522,-255 860,-255 Z" fill="#F1EFDD" fill-rule="nonzero" transform="translate(607.5, 329) rotate(-90) translate(-607.5, -329)"></path>
            </g>
            <g id="Icon" transform="translate(80.5, 78.5)">
                <mask id="mask-2" fill="white">
                    <use xlink:href="#path-1"></use>
                </mask>
                <use id="Frame" fill="#013300" xlink:href="#path-1"></use>
                <path d="M134.672001,209.766085 C140.889833,212.053777 145.973181,216.67166 148.845658,222.641906 L201.885757,332.885492 C181.998864,365.263437 172.055417,389.925998 172.055417,406.873174 C172.055417,418.978399 186.157733,427.766969 200.834992,436.527656 L202.838729,437.722431 C203.426539,438.072878 204.014284,438.423519 204.601101,438.774564 L59.7958917,438.77551 C45.7126306,438.77551 34.2958917,427.358771 34.2958917,413.27551 C34.2958917,410.271025 34.8268559,407.290179 35.8642899,404.470487 L101.935376,224.892663 C106.798256,211.675604 121.454942,204.903204 134.672001,209.766085 Z M330.41501,60.950873 C337.513002,63.5281204 343.103666,69.1187839 345.680913,76.2167765 L464.90532,404.572519 C469.711849,417.810174 462.877071,432.437876 449.639416,437.244405 C446.849629,438.257364 443.90442,438.77551 440.936424,438.77551 L293.711105,438.774156 C264.568301,420.914406 232.687302,413.631551 221.286531,406.873174 C207.855485,398.911249 195.614395,368.132924 204.812026,332.154416 L297.743123,76.2167765 C302.549653,62.9791212 317.177355,56.1443435 330.41501,60.950873 Z" id="Mountains" fill="#F1EFDD" mask="url(#mask-2)"></path>
                <path d="M125.283447,56.122449 C153.46124,56.122449 176.303855,78.9650638 176.303855,107.142857 C176.303855,135.320651 153.46124,158.163265 125.283447,158.163265 C97.1056534,158.163265 74.2630385,135.320651 74.2630385,107.142857 C74.2630385,78.9650638 97.1056534,56.122449 125.283447,56.122449 Z M130.385488,72.7024498 C108.548552,72.7024498 90.8453016,90.4057002 90.8453016,112.244898 C90.8453016,114.359134 92.5582155,116.07306 94.6712018,116.07306 C96.7841882,116.07306 98.497102,114.359134 98.497102,112.244898 C98.497102,94.635185 112.773512,80.3587746 130.385488,80.3587746 C132.498474,80.3587746 134.211388,78.644848 134.211388,76.5306122 C134.211388,74.4163765 132.498474,72.7024498 130.385488,72.7024498 Z" id="Sun" fill="#F1EFDD" mask="url(#mask-2)"></path>
            </g>
            <path d="M661.206693,472.530745 C654.083732,471.479691 650.582108,470.458666 645.643921,467.996195 C633.852128,462.11029 625.561959,450.48863 623.377185,436.67477 C622.419476,430.638714 622.239906,425.473532 622.868402,421.359404 C623.826112,415.203228 623.975754,414.422444 625.292604,410.548558 C626.340098,407.395394 628.943869,402.380362 630.889216,399.737711 C637.802678,390.428371 647.858623,384.962887 661.655619,383.040959 C664.618531,382.650567 677.787031,382.830748 681.55801,383.34126 C689.489038,384.392315 694.068085,385.59352 699.066129,387.90584 C701.969184,389.257196 704.12403,391.149094 705.231381,393.341293 C706.608088,396.074035 706.847515,397.905873 706.847515,406.644641 C706.847515,415.173198 707.086942,417.155186 708.284078,418.806843 C708.583363,419.227265 710.169568,420.578621 711.785702,421.809856 C713.431765,423.041092 715.077827,424.512568 715.436968,425.08314 C716.245035,426.254315 716.33482,427.755822 715.676395,429.017087 C714.718686,430.878955 715.317254,430.818895 694.517011,430.818895 C677.068749,430.818895 675.482543,430.788865 674.524834,430.278353 C672.759058,429.407479 672.220347,427.27534 673.207984,425.323381 C673.926266,423.972026 674.554763,423.491543 676.85925,422.560609 C682.934717,420.068109 684.311424,419.167205 685.269133,417.155186 C685.837773,415.893921 685.897629,415.293318 685.897629,408.626629 C685.897629,400.788765 685.747987,399.977952 684.01214,397.905873 C682.006936,395.533493 676.559966,394.182137 671.322495,394.81277 C663.271753,395.743704 656.507933,399.947922 651.450032,407.125123 C648.48712,411.329341 646.691415,415.323348 644.895711,421.659706 C644.656283,422.560609 644.267214,424.782839 643.698574,428.446515 C643.309505,430.999076 643.309505,436.854951 643.698574,439.617723 C645.194995,449.978118 650.103254,457.245409 657.465642,459.948121 C661.116908,461.299477 667.611372,460.939115 671.382352,459.197368 C674.405121,457.785951 676.769465,455.864023 681.917151,450.698841 C688.501401,444.032152 689.27954,443.5817 693.828658,443.5817 C696.492286,443.5817 697.001069,443.671791 698.527418,444.422544 C700.592478,445.443568 702.148755,447.155286 702.956822,449.347485 C703.734961,451.389534 703.705032,453.041191 702.926893,455.473631 C702.05897,458.146313 701.131189,459.647819 698.976344,461.809989 C693.559302,467.275472 684.580779,471.029239 673.47734,472.440655 C669.885931,472.891107 664.019963,472.921137 661.206693,472.530745 Z M807.017896,468.536738 C806.419328,468.296497 805.701046,467.936135 805.43169,467.725924 C804.414125,466.885081 803.246917,464.782972 802.349064,462.17035 C800.104434,455.623782 794.777177,449.527666 789.449921,447.455587 C787.594359,446.734864 785.738798,445.413538 784.900803,444.242363 C784.362091,443.46158 784.212449,442.921037 784.242378,441.449561 C784.332163,437.906006 785.649013,436.824921 790.228059,436.58468 L793.011401,436.434529 L793.101186,417.635668 L793.2209,398.836807 L794.028967,395.893854 C796.483096,386.764695 802.019852,382.800285 812.345153,382.800285 C819.288543,382.770688 825.034798,384.302224 829.583916,387.335267 C833.26511,389.827768 835.240385,392.440389 835.240385,394.90286 C835.240385,396.074035 835.060814,396.434397 834.103105,397.485451 C833.025682,398.596566 832.816184,398.686656 831.409548,398.686656 C830.571553,398.686656 829.284631,398.446415 828.596278,398.116084 C826.172077,397.065029 825.214368,396.854819 821.922243,396.674638 C816.954127,396.434397 815.068638,397.18515 813.751788,399.947922 C812.644437,402.350332 812.464866,405.773767 812.554651,421.509555 L812.644437,436.374469 L820.784964,436.52462 C828.416708,436.67477 828.955419,436.7048 829.733558,437.305403 C831.170121,438.386488 831.589119,439.437542 831.619047,442.020133 C831.648976,444.602725 831.259906,445.743869 830.032842,446.554683 C829.374417,446.975105 828.207209,447.035165 821.473317,447.035165 C816.654843,447.035165 813.422575,447.155286 813.063434,447.335466 C812.524723,447.635768 812.494795,448.056189 812.494795,457.005168 L812.494795,466.344538 L811.746584,467.335533 C811.297658,467.936135 810.549448,468.446647 809.861095,468.656858 C808.484388,469.01722 808.424531,469.01722 807.017896,468.536738 Z M749.196212,448.776913 C745.66466,448.506641 743.270387,447.936069 740.068048,446.614743 C731.299024,443.011128 724.176063,434.39248 721.871576,424.512568 C721.692005,423.761815 721.392721,422.410459 721.183222,421.509555 C720.674439,419.317355 720.674439,409.857865 721.183222,407.695695 C722.200788,403.071055 722.380359,402.500483 723.218354,400.488464 C724.774631,396.824788 726.30098,394.482438 728.964608,391.659606 C734.770719,385.59352 742.103179,382.800718 752.24891,382.770688 C756.349102,382.770688 757.636023,382.920838 761.466859,383.881803 C762.454497,384.122044 763.591776,384.392315 764.010774,384.482405 C764.429772,384.572496 766.165619,385.293219 767.871539,386.104032 C774.695216,389.347286 778.974978,394.062016 779.214405,398.746717 C779.334119,400.578555 779.274262,400.818796 778.585909,401.509489 C776.999703,403.101085 775.563139,402.890875 771.79216,400.458434 C768.97889,398.686656 766.764187,397.635602 764.4597,397.034999 C759.042658,395.623583 752.278838,396.464427 747.759648,399.107078 C745.09602,400.698675 742.163036,404.2122 740.726473,407.545545 C740.157833,408.926931 740.127904,409.077081 740.606759,409.287292 C740.876115,409.407413 744.946378,410.578588 749.645138,411.899913 C760.748577,415.023047 760.449293,414.932957 761.317217,415.203228 C761.736215,415.323348 762.663996,415.593619 763.412206,415.80383 C764.160416,416.014041 765.088197,416.284312 765.507194,416.404433 C765.926192,416.524553 766.794116,416.764794 767.452541,416.944975 C772.390728,418.296331 774.515645,419.167205 775.92228,420.42847 C777.957412,422.230278 779.004906,425.984044 778.37641,429.107178 C776.371206,439.287392 769.487673,446.344472 759.671155,448.29643 C757.246954,448.776913 752.099268,449.017154 749.196212,448.776913 Z M753.775258,438.897 C758.144806,436.884981 761.017933,429.917991 759.042658,425.984044 C758.114878,424.122176 755.960032,422.830881 750.243706,420.728772 C748.687429,420.158199 747.131152,419.557596 746.801939,419.407446 C746.472727,419.287325 745.395304,418.866904 744.407667,418.506542 C743.420029,418.14618 741.953537,417.605638 741.14547,417.275307 C738.721269,416.314342 738.691341,416.344373 738.481842,419.197235 C738.272343,422.140188 738.661412,426.975038 739.319837,429.467539 C740.427189,433.761848 743.001032,437.455554 745.754445,438.716819 C748.178646,439.827934 751.560556,439.918024 753.775258,438.897 Z M1012.81512,282.904392 C1012.51455,282.78496 1010.3505,282.128088 1008.0061,281.471216 C990.152608,276.156524 990.272822,276.21624 990.272822,273.051311 C990.272822,271.618136 990.873961,270.841832 993.518922,268.930932 C995.322305,267.557472 997.005462,266.184012 997.306026,265.766003 C997.546477,265.347993 997.907154,247.911026 998.087492,227.070268 C998.388056,186.403916 998.388056,186.76221 1001.51392,185.329035 C1005.06057,183.716712 1007.94598,184.85131 1010.65106,188.911973 C1012.69489,192.076902 1013.1758,192.315765 1014.31794,191.002021 C1015.70053,189.329983 1020.68989,186.523347 1023.93598,185.567897 C1025.73936,185.030456 1028.2641,184.254153 1029.52647,183.895859 C1031.26974,183.418134 1032.5321,183.418134 1034.51583,183.955575 C1035.95853,184.373584 1037.82203,184.672163 1038.66361,184.672163 C1042.09003,184.672163 1049.30356,188.434248 1053.03056,192.136618 C1059.04183,198.048466 1061.80702,205.930931 1061.74691,216.918609 C1061.74691,228.324296 1058.50082,236.744201 1051.8283,242.954628 C1042.99172,251.075955 1028.86523,251.911974 1019.72809,244.865529 L1018.22527,243.671216 L1017.9247,262.839936 C1017.68425,279.022875 1017.50391,282.128088 1016.72245,282.605813 C1015.82076,283.143254 1014.01737,283.322401 1012.81512,282.904392 Z M1033.85458,237.281642 C1040.46699,233.459841 1044.49454,216.560315 1041.66924,204.557471 C1040.5271,199.660788 1038.66361,196.913869 1035.47763,195.361262 C1029.16579,192.256049 1021.29102,196.913869 1018.82639,205.094912 C1017.74436,208.797281 1017.56403,222.949888 1018.58594,227.786855 C1019.42752,231.907234 1021.71181,235.788751 1024.11632,237.281642 C1026.52083,238.714818 1031.32985,238.714818 1033.85458,237.281642 Z M878.703549,271.438989 C877.982196,271.319557 876.900166,270.662685 876.299039,270.005813 C874.495656,268.035197 875.758024,266.004865 880.68727,262.720505 C884.233923,260.451311 885.135614,259.495861 885.676629,257.644676 C886.157531,256.151785 886.277757,246.597282 886.157531,227.547993 C885.977193,200.317661 885.977193,199.660788 884.714825,197.988751 C883.091781,195.898703 881.047947,195.1224 878.222647,195.659841 C875.938362,196.07785 875.217009,196.734722 868.424267,204.318608 C864.276486,208.976428 860.609608,210.230457 856.822504,208.259841 C853.396077,206.528087 850.991566,200.377376 852.554498,197.331878 C852.855062,196.794438 853.45619,195.540409 853.876979,194.584959 C855.740474,190.584011 861.150623,186.821926 867.041673,185.38875 C873.533852,183.776428 877.801858,183.358419 879.725466,184.015291 C880.807496,184.373584 882.490653,184.672163 883.572683,184.672163 C886.397982,184.672163 892.769935,186.881641 895.775573,188.971689 C900.404256,192.136618 904.131247,198.347044 905.814404,205.692068 C906.59587,209.155575 906.776208,213.693964 906.776208,229.876903 C906.776208,240.804865 907.016659,251.852258 907.317223,254.420031 C907.858238,259.376429 907.25711,258.54041 914.170078,264.273112 C916.274025,266.004865 916.935265,266.960316 916.935265,268.214344 C916.935265,271.498704 916.454363,271.55842 897.45873,271.618136 C887.840689,271.677851 879.364789,271.618136 878.703549,271.438989 Z M944.70736,248.567898 C933.105598,245.522401 925.1106,237.460789 922.04485,225.637092 C920.30158,219.008656 921.022933,208.856997 923.728007,202.467424 C927.214547,194.286381 935.750559,187.18022 944.466909,185.329035 C946.330405,184.911025 948.855141,184.313869 950.057396,184.015291 C952.822583,183.358419 955.888334,183.298703 958.172619,184.015291 C959.134423,184.313869 961.418708,184.85131 963.222091,185.269319 C974.102501,187.71766 981.977272,195.002968 985.584038,206.050362 C987.207082,211.066476 987.327308,221.27785 985.884602,226.711974 C981.195806,243.671216 963.041753,253.34515 944.70736,248.567898 Z M955.948447,238.177377 C960.276566,235.430457 963.041753,231.250362 965.746827,223.129035 C966.828856,219.665528 967.069307,217.694912 967.12942,210.947045 C967.12942,203.721452 967.009195,202.586855 965.746827,200.198229 C961.839497,192.37548 952.281568,192.733774 946.87142,200.914817 C942.483188,207.602969 940.860144,213.634248 940.800031,223.785907 C940.739918,231.130931 940.800031,231.728088 942.30285,234.236144 C945.428714,239.610552 951.0192,241.222874 955.948447,238.177377 Z M1086.15269,248.627614 C1084.16897,248.030457 1081.40378,247.015292 1080.0813,246.298704 C1076.7751,244.626666 1072.50709,239.789699 1071.6054,236.744201 C1070.64359,233.638988 1070.58348,226.114817 1071.54529,223.427613 C1073.9498,216.321452 1080.98299,211.42477 1092.76509,208.558419 C1096.67242,207.602969 1098.71625,206.946097 1102.50336,205.214343 C1108.03373,202.706286 1109.17587,197.570741 1104.84776,194.107234 C1103.94606,193.330931 1102.44324,193.032352 1099.61795,193.032352 C1096.25163,193.032352 1095.28983,193.271215 1092.70498,194.883537 C1091.08193,195.958419 1088.25663,198.167897 1086.39314,199.899651 C1082.54592,203.422874 1079.6004,204.97548 1076.83521,204.97548 C1068.71999,204.97548 1066.19525,194.883537 1072.92788,189.747992 C1076.65487,186.941357 1080.68243,185.687329 1091.08193,184.075006 C1094.62859,183.47785 1096.43197,183.537565 1101.24099,184.373584 C1104.48708,184.911025 1108.21407,185.80676 1109.53655,186.284485 C1115.30738,188.553679 1119.87595,193.032352 1121.73944,198.227613 C1122.70125,201.034248 1122.76136,208.498703 1121.85967,210.767898 C1119.93606,215.366002 1119.33493,216.321452 1117.17087,218.292068 C1113.98489,221.158419 1110.13768,223.009604 1103.58539,224.920505 C1092.46453,228.145149 1089.93979,229.100599 1087.89596,230.892069 C1084.95043,233.459841 1084.52964,236.326192 1086.75381,238.893964 C1088.25663,240.625718 1088.67742,240.804865 1091.92351,240.804865 C1096.31174,240.804865 1098.11513,239.968846 1103.28482,235.490173 C1109.05565,230.474059 1110.31802,229.817187 1113.92478,229.817187 C1117.83211,229.817187 1120.1164,231.310078 1121.19843,234.534723 C1122.22034,237.58022 1121.67933,239.550836 1119.21471,242.417187 C1114.04501,248.448467 1096.73253,251.673112 1086.15269,248.627614 Z M902.629241,381.538493 C900.466578,380.875643 897.943471,380.152533 896.922213,379.851238 C891.335334,378.284501 886.889859,376.838282 885.38801,376.115172 C883.946234,375.452322 883.705938,374.970249 883.705938,372.921439 C883.705938,370.691851 883.946234,370.390555 886.529415,368.7033 C890.794668,365.991639 891.215186,364.605679 891.215186,354.120592 C891.215186,349.179344 891.034964,344.900946 890.854742,344.720169 C890.614446,344.539391 889.292818,345.021464 887.851043,345.865092 C878.239206,351.52945 864.362118,349.480639 856.372278,341.285398 C853.488728,338.272442 850.485029,333.090158 849.343623,328.932278 C847.601478,322.725588 847.361182,321.158851 847.361182,315.193198 C847.361182,304.768369 849.884289,297.416756 855.591317,291.210066 C861.178197,285.184154 866.344559,283.135344 875.595951,283.135344 C880.762313,283.195603 881.663423,283.37638 885.267862,285.123895 C887.730895,286.268818 890.314076,288.19711 892.056221,290.065143 C893.618145,291.692139 894.999846,293.078099 895.119994,293.078099 C895.300216,293.078099 895.420364,291.872917 895.420364,290.366439 C895.420364,288.257369 895.780808,287.232964 896.922213,286.1483 C898.303915,284.702081 898.604285,284.641822 907.254938,284.641822 C914.343667,284.641822 916.446256,284.822599 917.527588,285.605968 C919.510029,286.991928 919.269733,289.643329 917.046996,291.390844 C916.025738,292.174212 914.343667,293.499913 913.262335,294.4038 L911.339968,295.970537 L911.039598,338.875034 C910.799302,376.054913 910.61908,381.77953 909.838119,382.261603 C908.576565,383.105231 907.074716,382.924453 902.629241,381.538493 Z M883.705938,337.428815 C885.08764,336.585187 886.889859,334.897931 887.670821,333.63249 C890.494298,329.293833 890.914816,326.76295 890.914816,314.470088 C890.914816,303.623446 890.854742,302.840077 889.47304,300.128417 C887.851043,296.814165 885.928676,295.12691 882.864903,294.283282 C876.497061,292.596026 870.489663,298.380902 868.086704,308.504435 C867.005373,312.903351 866.945299,326.03984 867.906482,329.47461 C868.867666,332.849121 871.330699,336.464669 873.493362,337.73011 C876.196691,339.296847 880.702239,339.176329 883.705938,337.428815 Z M662.33333,372.559884 C642.989509,370.75211 628.872125,358.941322 623.885984,340.381512 C622.324061,334.656895 622.023691,321.94222 623.285245,316.579158 C627.310201,299.164271 637.462703,289.040738 656.025563,283.978972 C660.050519,282.894307 675.369383,282.834048 679.454414,283.978972 C693.031133,287.594519 701.561638,293.921727 707.809331,305.069665 C713.516359,315.253457 714.477543,331.884975 710.092143,344.59965 C703.484005,363.822311 684.921146,374.668953 662.33333,372.559884 Z M669.181764,360.267023 C680.956263,356.651475 689.186398,343.635504 691.16884,325.497508 C692.550541,312.602055 687.804697,301.032304 679.574562,297.055202 C666.358287,290.727993 651.940532,299.947639 646.233504,318.386931 C644.130915,325.196212 643.710397,327.847614 643.710397,334.717154 C643.710397,344.539391 645.272321,349.661417 649.958091,354.96422 C654.824083,360.508059 661.972886,362.436351 669.181764,360.267023 Z M814.620864,367.016044 C813.539532,365.93138 812.338053,363.942829 811.977609,362.617128 C811.136573,359.363136 807.171691,353.276964 804.468362,351.167895 C803.326956,350.203749 800.803849,348.576752 798.881482,347.552347 C794.496081,345.202242 792.994232,342.912395 793.955416,340.080216 C794.736377,337.850628 797.379632,336.464669 800.803849,336.464669 L802.906438,336.464669 L802.906438,317.362526 C802.906438,301.99645 803.08666,297.597534 803.807548,295.187169 C805.489619,289.703588 808.793688,285.967523 813.719754,283.978972 C816.483157,282.894307 827.476695,282.834048 831.441578,283.978972 C838.169863,285.847004 844.958223,291.270326 844.958223,294.765355 C844.958223,298.079607 840.632896,299.766862 837.088532,297.83857 C836.247496,297.356497 833.544167,297.055202 830.660616,297.055202 C825.794624,296.994942 825.554328,297.055202 824.2327,298.742457 C822.430481,301.032304 822.009963,306.033811 822.250259,323.207661 L822.430481,336.163373 L830.240098,336.464669 C840.272452,336.826223 841.353784,337.428815 841.353784,342.430322 C841.353784,346.70872 840.753044,346.949756 831.02106,347.311311 L822.430481,347.612607 L822.130111,357.434844 C821.889815,366.292935 821.709593,367.377599 820.688336,368.160968 C818.765968,369.546928 816.783527,369.185373 814.620864,367.016044 Z M730.457221,346.467683 C725.110637,345.141982 720.364793,343.635504 719.824127,343.153431 C719.223387,342.731617 718.802869,341.466176 718.802869,340.321253 C718.802869,338.754515 719.223387,337.971147 720.785311,336.826223 C721.926716,335.922336 723.128196,335.259486 723.48864,335.259486 C723.849083,335.259486 724.690119,334.536377 725.230785,333.63249 C726.191969,332.186271 726.372191,329.896424 726.612486,314.470088 C727.033004,294.885873 727.393448,292.776804 731.298257,288.257369 C734.782547,284.159749 737.305655,283.195603 744.63468,283.195603 C750.582004,283.195603 751.182743,283.316121 755.147626,285.184154 C757.610659,286.389337 760.614358,288.498406 762.476651,290.366439 C764.158723,292.113953 765.720646,293.379395 765.900868,293.198618 C766.141164,293.01784 766.261312,291.692139 766.261312,290.24592 C766.261312,288.257369 766.621756,287.232964 767.763161,286.1483 C769.204937,284.641822 769.385159,284.641822 779.057069,284.641822 C787.82787,284.641822 789.029349,284.76234 789.870385,285.726486 C792.033048,288.076592 790.831569,291.270326 787.22713,293.138358 C783.082026,295.247428 783.082026,295.247428 783.082026,323.087143 C783.082026,341.405917 782.901804,347.853643 782.361138,348.395975 C781.219732,349.540898 779.297365,349.299862 768.183679,346.467683 C757.550585,343.816282 756.10881,343.093172 756.10881,340.381512 C756.048736,338.754515 757.730807,336.826223 760.133766,335.560782 C763.437835,333.933785 763.858353,332.005493 763.858353,319.049782 C763.858353,306.395366 763.257613,303.261891 760.374062,300.128417 C756.10881,295.548723 749.62082,295.428205 747.217861,299.827121 C746.256677,301.634895 746.136529,304.04526 745.956307,324.412844 C745.836159,337.248037 745.475715,347.431829 745.175346,348.03442 C744.33431,349.661417 741.510833,349.360121 730.457221,346.467683 Z M947.684725,347.913902 C942.518363,346.527942 940.896365,345.744574 936.510965,342.671358 C921.612618,332.306789 919.449955,306.576143 932.185638,292.716545 C935.369559,289.281775 939.514664,286.690632 944.801174,284.822599 C948.52576,283.496899 950.32798,283.255862 956.395451,283.195603 C964.205069,283.135344 966.608028,283.617417 972.855721,286.630373 C980.485117,290.24592 986.552588,297.898829 988.835399,306.696661 C990.036879,311.276355 989.976805,320.013928 988.775325,324.955176 C985.891775,336.705705 976.640382,345.744574 964.98603,348.275457 C959.819668,349.360121 952.370495,349.239603 947.684725,347.913902 Z M959.279002,337.06726 C964.565512,333.692749 968.830765,324.593621 969.97217,314.229052 C971.233724,302.237486 968.590469,295.428205 962.042405,293.680691 C955.554416,291.933176 949.186574,297.657793 945.522061,308.444176 C944.200434,312.481537 943.83999,314.650866 943.599694,321.460147 C943.359398,329.293833 943.419472,329.715647 944.921322,332.90938 C947.744799,338.935293 953.692122,340.622548 959.279002,337.06726 Z M1020.97498,347.733125 C1018.51194,346.949756 1015.02765,345.563796 1013.28551,344.59965 C1007.87885,341.646953 1002.53227,335.078709 999.949085,328.329687 C997.666274,322.424293 997.425978,311.155837 999.40842,305.129924 C1003.01286,293.981986 1010.16166,287.112446 1021.27535,283.978972 C1025.12008,282.894307 1036.59421,282.894307 1040.19865,283.918712 C1051.853,287.413742 1059.42232,294.705096 1062.78647,305.672256 C1063.80772,309.107026 1063.92787,320.737037 1062.96669,324.834658 C1060.20329,336.34415 1051.07204,345.383019 1039.29754,348.215198 C1033.89088,349.540898 1026.32156,349.299862 1020.97498,347.733125 Z M1032.26889,337.73011 C1035.99347,335.801818 1039.17739,331.764457 1041.21991,326.220617 C1043.56279,320.074187 1044.10346,317.000972 1044.10346,309.348063 C1044.10346,303.141373 1043.86316,301.454118 1042.96205,299.706603 C1038.87702,291.993435 1031.66815,291.210066 1025.24023,297.778311 C1022.83727,300.248935 1019.71342,306.937698 1018.51194,312.059723 C1018.03135,314.168793 1017.67091,318.869004 1017.67091,323.207661 C1017.67091,330.137461 1017.79106,330.981088 1019.17276,333.451712 C1022.05631,338.573738 1027.28275,340.321253 1032.26889,337.73011 Z M1107.24121,348.154939 C1104.35766,347.130534 1100.09241,343.695763 1097.86967,340.622548 C1096.96856,339.357107 1096.06745,338.513479 1095.82715,338.694256 C1095.64693,338.875034 1095.46671,340.923844 1095.46671,343.093172 C1095.46671,349.119085 1095.52678,349.119085 1083.87243,346.407424 C1072.51845,343.816282 1071.37704,343.334209 1070.59608,341.104621 C1070.11549,339.77892 1070.23564,339.176329 1071.19682,337.790369 C1071.91771,336.886482 1073.11919,335.862077 1073.96023,335.440263 C1074.74119,335.01845 1075.94267,334.114563 1076.60348,333.391453 C1077.68481,332.186271 1077.74489,330.920829 1077.92511,315.434234 C1078.1654,297.296238 1077.86503,295.12691 1075.22178,293.560172 C1071.97778,291.63188 1070.65616,290.125402 1070.65616,288.257369 C1070.65616,284.822599 1071.2569,284.702081 1089.63953,284.641822 C1108.50276,284.641822 1109.28372,284.822599 1109.28372,288.618924 C1109.28372,291.029289 1107.9621,292.113953 1103.3364,293.439654 C1098.89093,294.765355 1098.04989,295.78976 1097.5693,300.670749 C1096.78834,307.721066 1097.5693,325.557767 1098.77078,328.510464 C1099.91218,331.282384 1102.73566,334.054304 1104.47781,334.054304 C1105.61921,334.054304 1109.3438,332.24653 1110.9658,330.86057 C1112.1072,329.956683 1116.67282,330.016942 1118.41497,330.981088 C1120.69778,332.186271 1122.5,335.862077 1122.5,339.236588 C1122.5,345.383019 1118.83549,349.179344 1112.94824,349.058825 C1111.08594,349.058825 1108.50276,348.637012 1107.24121,348.154939 Z" id="Get-Outdoor-Jobs" fill="#013300" fill-rule="nonzero" transform="translate(872.5, 328.1513) scale(1, -1) translate(-872.5, -328.1513)"></path>
        </g>
    </g>
</svg>