<?xml version="1.0" encoding="UTF-8"?>
<svg width="1232px" height="1249px" viewBox="0 0 1232 1249" version="1.1" xmlns="http://www.w3.org/2000/svg" xmlns:xlink="http://www.w3.org/1999/xlink">
    <title>Artboard</title>
    <g id="Artboard" stroke="none" stroke-width="1" fill="none" fill-rule="evenodd" opacity="0.0226716541">
        <g id="Asset-1" transform="translate(30, 30)" fill="#E29359" fill-rule="nonzero">
            <g id="Group" transform="translate(9, 253)">
                <path d="M73.92,567.977289 C96.36,581.263307 121.44,587.906317 147.84,587.906317 C174.24,587.906317 199.32,581.263307 221.76,567.977289 C244.2,554.69127 262.02,536.090845 275.88,513.504613 C289.08,490.254081 295.68,465.674947 295.68,438.438609 C295.68,414.523776 290.4,392.601845 279.84,371.344216 C269.28,350.750887 254.76,333.479063 236.28,319.528744 C217.8,305.578424 203.94,296.278211 181.5,292.292406 L297.66,151.46061 L297.66,127.545777 C297.66,127.545777 17.82,127.545777 17.82,127.545777 L17.82,151.46061 L267.3,151.46061 L108.24,344.107878 L127.38,358.058197 L162.36,314.878637 C182.82,316.87154 198,323.514549 215.82,334.807665 C232.98,346.765082 246.84,361.379702 257.4,379.980128 C267.3,397.916253 272.58,417.84528 272.58,439.10291 C272.58,461.689141 267.3,482.28247 256.08,501.547197 C244.86,520.811923 229.68,536.090845 210.54,547.38396 C191.4,558.677076 170.28,563.991483 148.5,563.991483 C126.72,563.991483 105.6,558.677076 86.46,547.38396 C67.32,536.090845 52.14,520.811923 40.92,501.547197 C29.7,482.28247 24.42,461.02484 24.42,439.10291 L0,439.10291 C0,465.674947 6.6,490.918382 19.8,514.168914 C33,537.419446 50.82,555.355571 73.92,568.64159 L73.92,567.977289 Z" id="Path"></path>
                <path d="M1134.54,423.823989 C1120.68,400.573456 1102.86,381.973031 1079.1,368.022711 C1056,354.072392 1030.26,347.429383 1003.2,347.429383 C976.14,347.429383 950.4,354.072392 927.3,368.022711 C904.2,381.973031 885.72,399.909155 871.86,423.823989 C858,447.074521 851.4,472.982257 851.4,500.218595 L851.4,666.293825 C851.4,694.194464 858,719.437899 871.86,742.688432 C885.72,765.938964 903.54,784.53939 927.3,798.489709 C950.4,812.440028 976.14,819.083038 1003.2,819.083038 C1030.26,819.083038 1056,812.440028 1079.1,798.489709 C1102.2,784.53939 1120.68,766.603265 1134.54,742.688432 C1148.4,719.437899 1155,693.530163 1155,666.293825 L1155,500.218595 C1155,472.317956 1148.4,447.074521 1134.54,423.823989 L1134.54,423.823989 Z M874.5,666.293825 L874.5,500.218595 C874.5,476.968062 880.44,455.046132 891.66,435.781405 C903.54,415.852378 918.72,400.573456 938.52,389.280341 C958.32,377.987225 979.44,372.008517 1002.54,372.008517 C1025.64,372.008517 1045.44,377.322924 1064.58,387.951739 C1083.72,398.580554 1098.9,413.195174 1110.78,431.7956 L883.08,712.130589 C877.14,696.851668 874.5,681.572747 874.5,666.293825 Z M1131.9,666.293825 C1131.9,689.544358 1125.96,711.466288 1114.74,730.731015 C1102.86,750.660043 1087.68,765.938964 1067.88,777.89638 C1048.08,789.853797 1026.96,795.168204 1003.86,795.168204 C980.76,795.168204 960.96,789.853797 941.82,779.224982 C922.68,768.596167 907.5,753.317246 895.62,734.71682 L1123.32,454.381831 C1128.6,469.660752 1131.9,484.939674 1131.9,499.554294 L1131.9,665.629524 L1131.9,666.293825 Z" id="Shape"></path>
                <path d="M799.92,0 L647.46,184.675656 C638.88,172.71824 621.72,150.132009 597.96,137.510291 C574.2,125.552874 549.12,116.916962 522.06,116.916962 C495,116.916962 469.26,123.559972 446.16,137.510291 C423.06,151.46061 404.58,169.396735 390.72,193.311568 C376.86,216.562101 370.26,242.469837 370.26,269.706175 L370.26,435.781405 C370.26,467.66785 379.5,490.918382 385.44,502.875798 L40.26,921.38538 L58.08,936 L397.98,523.469127 L514.8,381.973031 L748.44,381.973031 L589.38,574.620298 L608.52,588.570617 L643.5,545.391057 C663.96,547.38396 679.14,554.026969 696.96,565.320085 C714.12,577.277502 727.98,591.892122 738.54,610.492548 C748.44,628.428673 753.72,648.3577 753.72,669.61533 C753.72,692.201561 748.44,712.79489 737.22,732.059617 C726,751.324344 710.82,766.603265 691.68,777.89638 C672.54,789.189496 651.42,794.503903 629.64,794.503903 C607.86,794.503903 586.74,789.189496 567.6,777.89638 C548.46,766.603265 533.28,751.324344 522.06,732.059617 C510.84,712.79489 505.56,691.53726 505.56,669.61533 L482.46,669.61533 C482.46,696.187367 489.06,721.430802 502.26,744.681334 C515.46,767.931867 533.28,785.867991 556.38,799.15401 C578.82,812.440028 603.9,819.083038 630.3,819.083038 C656.7,819.083038 681.78,812.440028 704.22,799.15401 C726.66,785.867991 744.48,767.267566 758.34,744.681334 C771.54,721.430802 778.14,696.851668 778.14,669.61533 C778.14,645.700497 772.86,623.778566 762.3,602.520937 C751.74,581.927608 737.22,564.655784 718.74,550.705465 C700.26,536.755145 686.4,527.454933 663.96,523.469127 L780.12,382.637331 L780.12,358.722498 C780.12,358.722498 535.92,358.722498 535.92,358.722498 L819.06,15.2789212 L801.24,0.664300923 L799.92,0 Z M393.36,435.781405 L393.36,269.706175 C393.36,246.455642 399.3,224.533712 410.52,205.268985 C422.4,185.339957 437.58,170.061036 457.38,158.767921 C477.18,147.474805 498.3,141.496097 521.4,141.496097 C544.5,141.496097 564.3,146.810504 583.44,157.439319 C602.58,168.068133 619.74,186.004258 630.96,203.940383 L485.76,379.980128 L401.28,482.28247 C395.34,467.003549 392.7,450.396026 392.7,435.781405 L393.36,435.781405 Z" id="Shape"></path>
            </g>
            <g id="Group">
                <path d="M55.7463194,135 C45.7916195,135 36.5005663,132.406963 27.8731597,127.869148 C19.2457531,123.331333 12.6092865,116.20048 7.30011325,107.773109 C1.99093998,99.3457383 0,90.270108 0,80.5462185 L0,54.6158463 C0,44.8919568 2.65458664,35.8163265 7.30011325,27.3889556 C12.6092865,18.9615846 19.2457531,12.4789916 27.8731597,7.29291717 C45.1279728,-2.43097239 67.0283126,-2.43097239 84.2831257,7.29291717 L84.2831257,7.29291717 C92.9105323,11.8307323 99.5469989,18.9615846 104.856172,27.3889556 C110.165345,35.8163265 112.156285,44.8919568 112.156285,54.6158463 L112.156285,80.5462185 C112.156285,90.270108 109.501699,99.9939976 104.856172,107.773109 C100.210646,116.20048 92.9105323,122.683073 84.2831257,127.869148 C75.6557191,133.055222 66.3646659,135 56.409966,135 L55.7463194,135 Z M55.7463194,18.9615846 C49.1098528,18.9615846 43.1370328,20.2581032 37.1642129,23.4993998 C31.8550396,26.7406963 27.209513,31.2785114 23.8912797,36.4645858 C20.5730464,41.6506603 19.2457531,48.1332533 19.2457531,54.6158463 L19.2457531,80.5462185 C19.2457531,87.0288115 20.5730464,92.8631453 23.8912797,98.697479 C27.209513,104.531813 31.8550396,108.421369 37.1642129,111.662665 C48.4462061,118.145258 62.382786,118.145258 73.6647792,111.662665 C79.6375991,108.421369 83.619479,104.531813 86.9377123,98.697479 C90.2559456,93.5114046 91.583239,87.0288115 91.583239,80.5462185 L91.583239,54.6158463 C91.583239,48.1332533 90.2559456,42.2989196 86.9377123,36.4645858 C83.619479,30.6302521 78.9739524,26.7406963 73.6647792,23.4993998 C68.3556059,20.2581032 61.7191393,18.9615846 55.0826727,18.9615846 L55.7463194,18.9615846 Z" id="Shape"></path>
                <path d="M231.612684,135 C221.657984,135 212.366931,132.406963 204.403171,127.869148 C195.775764,123.331333 189.139298,116.848739 184.493771,108.421369 C179.184598,99.9939976 177.193658,90.9183673 177.193658,81.8427371 L177.193658,2.75510204 L196.439411,2.75510204 L196.439411,81.8427371 C196.439411,88.3253301 197.766704,93.5114046 201.084938,99.3457383 C204.403171,104.531813 208.385051,109.069628 214.357871,112.310924 C224.976217,118.145258 238.912797,118.793517 250.19479,112.310924 C255.503964,109.069628 260.14949,105.180072 263.467724,99.3457383 C266.785957,94.1596639 268.11325,88.3253301 268.11325,81.8427371 L268.11325,2.75510204 L287.359003,2.75510204 L287.359003,81.8427371 C287.359003,91.5666267 284.704417,100.642257 280.05889,108.421369 C275.413364,116.848739 268.776897,123.331333 260.14949,127.869148 C251.522084,132.406963 242.231031,135 232.939977,135 L231.612684,135 Z" id="Path"></path>
                <polygon id="Path" points="416.770102 132.406963 397.524349 132.406963 397.524349 21.5546218 352.396376 21.5546218 352.396376 2.75510204 461.898075 2.75510204 461.898075 21.5546218 416.770102 21.5546218"></polygon>
                <path d="M581.354473,132.406963 L530.253681,132.406963 L530.253681,2.75510204 L581.354473,2.75510204 C591.309173,2.75510204 600.600227,5.34813926 608.563986,9.88595438 C617.191393,14.4237695 623.82786,20.9063625 628.473386,29.3337335 C633.118913,37.7611044 635.773499,46.8367347 635.773499,56.5606242 L635.773499,79.2496999 C635.773499,88.9735894 633.118913,98.0492197 628.473386,105.828331 C623.82786,114.255702 617.191393,120.738295 608.563986,125.27611 C599.93658,129.813926 590.645527,132.406963 581.354473,132.406963 L581.354473,132.406963 Z M550.16308,113.607443 L581.354473,113.607443 C587.99094,113.607443 593.96376,112.310924 599.272933,109.069628 C605.245753,105.828331 609.227633,101.938776 612.545866,96.1044418 C615.8641,90.9183673 617.191393,85.0840336 617.191393,78.6014406 L617.191393,55.9123649 C617.191393,49.4297719 615.8641,43.5954382 612.545866,38.4093637 C609.227633,33.2232893 605.245753,28.6854742 599.272933,25.4441777 C593.96376,22.2028812 587.99094,20.9063625 581.354473,20.9063625 L550.16308,20.9063625 L550.16308,112.959184 L550.16308,113.607443 Z" id="Shape"></path>
                <path d="M758.548131,135 C748.593431,135 739.302378,132.406963 730.674972,127.869148 C722.047565,123.331333 715.411099,116.20048 710.101925,107.773109 C705.456399,99.3457383 702.801812,90.270108 702.801812,80.5462185 L702.801812,54.6158463 C702.801812,44.8919568 705.456399,35.8163265 710.101925,27.3889556 C714.747452,18.9615846 722.047565,12.4789916 730.674972,7.29291717 C747.929785,-2.43097239 769.830125,-2.43097239 787.084938,7.29291717 L787.084938,7.29291717 C795.712344,11.8307323 802.348811,18.9615846 807.657984,27.3889556 C812.967157,35.8163265 814.958097,44.8919568 814.958097,54.6158463 L814.958097,80.5462185 C814.958097,90.270108 812.303511,99.3457383 807.657984,107.773109 C802.348811,116.20048 795.712344,122.683073 787.084938,127.869148 C778.457531,132.406963 769.166478,135 759.211778,135 L758.548131,135 Z M758.548131,18.9615846 C751.911665,18.9615846 745.938845,20.2581032 739.966025,23.4993998 C733.993205,26.7406963 730.011325,31.2785114 726.693092,36.4645858 C723.374858,41.6506603 722.047565,48.1332533 722.047565,54.6158463 L722.047565,80.5462185 C722.047565,87.0288115 723.374858,92.8631453 726.693092,98.697479 C730.011325,104.531813 734.656852,108.421369 739.966025,111.662665 C751.248018,118.145258 765.184598,118.145258 776.466591,111.662665 C781.775764,108.421369 786.421291,103.883553 789.739524,98.697479 C793.057758,93.5114046 794.385051,87.0288115 794.385051,80.5462185 L794.385051,54.6158463 C794.385051,48.1332533 793.057758,42.2989196 789.739524,36.4645858 C786.421291,31.2785114 781.775764,26.7406963 776.466591,23.4993998 C771.157418,20.2581032 764.520951,18.9615846 757.884485,18.9615846 L758.548131,18.9615846 Z" id="Shape"></path>
                <path d="M933.750849,135 C923.796149,135 914.505096,132.406963 905.87769,127.869148 C897.250283,123.331333 890.613817,116.20048 885.304643,107.773109 C880.659117,99.3457383 878.00453,90.270108 878.00453,80.5462185 L878.00453,54.6158463 C878.00453,44.8919568 880.659117,35.8163265 885.304643,27.3889556 C889.95017,18.9615846 897.250283,12.4789916 905.87769,7.29291717 C923.132503,-2.43097239 945.032843,-2.43097239 962.287656,7.29291717 C970.915062,11.8307323 977.551529,18.9615846 982.860702,27.3889556 C988.169875,35.8163265 990.160815,44.8919568 990.160815,54.6158463 L990.160815,80.5462185 C990.160815,90.270108 987.506229,99.3457383 982.860702,107.773109 C977.551529,116.20048 970.915062,122.683073 962.287656,127.869148 C953.660249,132.406963 944.369196,135 934.414496,135 L933.750849,135 Z M933.750849,18.9615846 C927.114383,18.9615846 921.141563,20.2581032 915.168743,23.4993998 C909.195923,26.7406963 905.214043,31.2785114 901.89581,36.4645858 C898.577576,41.6506603 897.250283,48.1332533 897.250283,54.6158463 L897.250283,80.5462185 C897.250283,87.0288115 898.577576,92.8631453 901.89581,98.697479 C905.214043,104.531813 909.85957,108.421369 915.168743,111.662665 C926.450736,118.145258 940.387316,118.145258 951.669309,111.662665 C956.978482,108.421369 961.624009,103.883553 964.942242,98.697479 C968.260476,93.5114046 969.587769,87.0288115 969.587769,80.5462185 L969.587769,54.6158463 C969.587769,48.1332533 968.260476,42.2989196 964.942242,36.4645858 C961.624009,31.2785114 956.978482,26.7406963 951.669309,23.4993998 C946.360136,20.2581032 939.723669,18.9615846 933.087203,18.9615846 L933.750849,18.9615846 Z" id="Shape"></path>
                <path d="M1172,132.406963 L1148.10872,132.406963 L1118.90827,92.214886 L1079.75311,92.214886 L1079.75311,132.406963 L1060.50736,132.406963 L1060.50736,2.75510204 L1112.93545,2.75510204 C1118.24462,2.75510204 1122.89015,2.75510204 1126.87203,4.05162065 C1130.85391,4.69987995 1134.83579,5.99639856 1138.15402,7.29291717 C1146.11778,11.182473 1152.75425,16.3685474 1157.39977,23.4993998 C1162.0453,30.6302521 1164.03624,38.4093637 1164.03624,47.484994 C1164.03624,57.8571429 1160.71801,66.9327731 1154.74519,74.7118848 C1150.09966,80.5462185 1144.79049,84.4357743 1138.81767,87.6770708 L1172,132.406963 L1172,132.406963 Z M1079.75311,73.4153661 L1118.24462,73.4153661 C1122.89015,73.4153661 1127.53567,72.1188475 1131.51755,70.1740696 C1135.49943,67.5810324 1138.81767,64.3397359 1141.47225,60.4501801 C1144.12684,56.5606242 1144.79049,52.0228091 1144.79049,47.484994 C1144.79049,42.2989196 1143.46319,37.7611044 1140.80861,33.2232893 C1138.15402,28.6854742 1134.17214,26.092437 1128.86297,23.4993998 C1125.54473,22.2028812 1119.57191,21.5546218 1112.2718,21.5546218 L1079.08947,21.5546218 L1079.08947,73.4153661 L1079.75311,73.4153661 Z" id="Shape"></path>
            </g>
        </g>
    </g>
</svg>