<?xml version="1.0" encoding="UTF-8"?>
<svg width="139px" height="141px" viewBox="0 0 139 141" version="1.1" xmlns="http://www.w3.org/2000/svg" xmlns:xlink="http://www.w3.org/1999/xlink">
    <title>Combined Shape</title>
    <g id="Page-1" stroke="none" stroke-width="1" fill="none" fill-rule="evenodd">
        <g id="Landing-Copy-3" transform="translate(-291, -50)" fill="#E29359" fill-rule="nonzero">
            <path d="M386.882286,80 L387.038857,80.0787793 L389.152571,81.8119233 L355.568,122.540809 L384.533714,122.540809 L384.533714,125.376863 L370.755429,142.07807 C373.417143,142.550745 375.061143,143.653655 377.253143,145.30802 C379.445143,146.962385 381.167429,149.010646 382.42,151.452803 C383.672571,153.97374 384.298857,156.573456 384.298857,159.40951 C384.298857,162.639461 383.516,165.554294 381.950286,168.311568 C380.306286,170.990064 378.192571,173.195884 375.530857,174.771469 C372.869143,176.347055 369.894286,177.134847 366.762857,177.134847 C363.631429,177.134847 360.656571,176.347055 357.994857,174.771469 C355.254857,173.195884 353.141143,171.068843 351.575429,168.311568 C350.009714,165.554294 349.226857,162.560681 349.226857,159.40951 L351.966857,159.40951 C351.966857,162.009226 352.593143,164.530163 353.924,166.814762 C355.254857,169.099361 357.055429,170.911285 359.325714,172.250532 C361.596,173.58978 364.101143,174.220014 366.684571,174.220014 C369.268,174.220014 371.773143,173.58978 374.043429,172.250532 C376.313714,170.911285 378.114286,169.099361 379.445143,166.814762 C380.776,164.530163 381.402286,162.088006 381.402286,159.40951 C381.402286,156.888573 380.776,154.525195 379.601714,152.398155 C378.349143,150.192335 376.705143,148.459191 374.669714,147.041164 C372.556,145.701916 370.755429,144.914123 368.328571,144.677786 L364.179429,149.798439 L361.909143,148.144074 L380.776,125.298084 L353.062857,125.298084 L339.206286,142.07807 L298.889143,191 L296.775429,189.266856 L337.718857,139.635912 C337.014286,138.217885 335.918286,135.46061 335.918286,131.679205 L335.918286,111.984386 C335.918286,108.754436 336.701143,105.682044 338.345143,102.924769 C339.989143,100.088715 342.181143,97.9616749 344.921143,96.3073101 C347.661143,94.6529454 350.714286,93.8651526 353.924,93.8651526 C357.133714,93.8651526 360.108571,94.8892832 362.926857,96.3073101 C365.745143,97.8041164 367.780571,100.482612 368.798286,101.900639 L386.882286,80 Z M327.306857,95.125621 L327.306857,97.9616749 L313.528571,114.662881 C316.190286,115.135557 317.834286,116.238467 320.026286,117.892832 C322.218286,119.547197 323.940571,121.595458 325.193143,124.037615 C326.445714,126.558552 327.072,129.158268 327.072,131.994322 C327.072,135.224273 326.289143,138.139106 324.723429,140.89638 C323.079429,143.574876 320.965714,145.780696 318.304,147.356281 C315.642286,148.931867 312.667429,149.719659 309.536,149.719659 C306.404571,149.719659 303.429714,148.931867 300.768,147.356281 L300.768,147.43506 C298.028,145.859475 295.914286,143.732434 294.348571,140.97516 C292.782857,138.217885 292,135.224273 292,132.073101 L294.896571,132.073101 C294.896571,134.672818 295.522857,137.193754 296.853714,139.478353 C298.184571,141.762952 299.985143,143.574876 302.255429,144.914123 C304.525714,146.253371 307.030857,146.883605 309.614286,146.883605 C312.197714,146.883605 314.702857,146.253371 316.973143,144.914123 C319.243429,143.574876 321.044,141.762952 322.374857,139.478353 C323.705714,137.193754 324.332,134.751597 324.332,132.073101 C324.332,129.552165 323.705714,127.188786 322.531429,125.061746 C321.278857,122.855926 319.634857,121.122782 317.599429,119.704755 C315.485714,118.365507 313.685143,117.577715 311.258286,117.341377 L307.109143,122.46203 L304.838857,120.807665 L323.705714,97.9616749 L294.113714,97.9616749 L294.113714,95.125621 L327.306857,95.125621 Z M353.845714,96.7799858 C351.105714,96.7799858 348.600571,97.4889993 346.252,98.828247 C343.903429,100.167495 342.102857,101.979418 340.693714,104.342796 C339.362857,106.627395 338.658286,109.227111 338.658286,111.984386 L338.658286,131.679205 L338.58,131.679205 C338.58,133.412349 338.893143,135.381831 339.597714,137.193754 L349.618286,125.061746 L366.841143,104.185238 C365.510286,102.058197 363.474857,99.9311568 361.204571,98.6706884 C358.934286,97.41022 356.585714,96.7799858 353.845714,96.7799858 Z M426.573143,130.261178 C424.929143,127.503903 422.815429,125.298084 419.997143,123.643719 C417.257143,121.989354 414.204,121.201561 410.994286,121.201561 C407.784571,121.201561 404.731429,121.989354 401.991429,123.643719 C399.251429,125.298084 397.059429,127.425124 395.415429,130.261178 C393.771429,133.018453 392.988571,136.090845 392.988571,139.320795 L392.988571,159.015614 C392.988571,162.324344 393.771429,165.317956 395.415429,168.075231 C397.059429,170.832505 399.173143,173.038325 401.991429,174.69269 C404.731429,176.347055 407.784571,177.134847 410.994286,177.134847 C414.204,177.134847 417.257143,176.347055 419.997143,174.69269 C422.737143,173.038325 424.929143,170.911285 426.573143,168.075231 C428.217143,165.317956 429,162.245564 429,159.015614 L429,139.320795 C429,136.012065 428.217143,133.018453 426.573143,130.261178 L426.573143,130.261178 Z M395.728571,159.015614 L395.728571,139.320795 C395.728571,136.56352 396.433143,133.963804 397.764,131.679205 C399.173143,129.315827 400.973714,127.503903 403.322286,126.164656 C405.670857,124.825408 408.176,124.116395 410.916,124.116395 C413.656,124.116395 416.004571,124.746629 418.274857,126.007097 C420.545143,127.267566 422.345714,129.00071 423.754857,131.206529 L396.746286,164.451384 C396.041714,162.639461 395.728571,160.827537 395.728571,159.015614 Z M426.26,159.015614 C426.26,161.772889 425.555429,164.372605 424.224571,166.657204 C422.815429,169.020582 421.014857,170.832505 418.666286,172.250532 C416.317714,173.668559 413.812571,174.298793 411.072571,174.298793 C408.332571,174.298793 405.984,173.668559 403.713714,172.408091 C401.443429,171.147622 399.642857,169.335699 398.233714,167.129879 L425.242286,133.885025 C425.868571,135.696948 426.26,137.508872 426.26,139.242016 L426.26,158.936835 L426.26,159.015614 Z M297.611552,66 C296.430917,66 295.328992,65.6926771 294.305776,65.1548619 C293.282559,64.6170468 292.49547,63.7719088 291.865798,62.7731092 C291.236127,61.7743097 291,60.6986795 291,59.5462185 L291,56.4729892 C291,55.3205282 291.314836,54.244898 291.865798,53.2460984 C292.49547,52.2472989 293.282559,51.4789916 294.305776,50.8643457 C296.352208,49.7118848 298.949604,49.7118848 300.996036,50.8643457 L300.996036,50.8643457 C302.019253,51.4021609 302.806342,52.2472989 303.436014,53.2460984 C304.065685,54.244898 304.301812,55.3205282 304.301812,56.4729892 L304.301812,59.5462185 C304.301812,60.6986795 303.986976,61.8511405 303.436014,62.7731092 C302.885051,63.7719088 302.019253,64.5402161 300.996036,65.1548619 C299.97282,65.7695078 298.870895,66 297.69026,66 L297.611552,66 Z M297.611552,52.2472989 C296.824462,52.2472989 296.116082,52.4009604 295.407701,52.785114 C294.778029,53.1692677 294.227067,53.7070828 293.833522,54.3217287 C293.439977,54.9363745 293.282559,55.7046819 293.282559,56.4729892 L293.282559,59.5462185 C293.282559,60.3145258 293.439977,61.0060024 293.833522,61.697479 C294.227067,62.3889556 294.778029,62.84994 295.407701,63.2340936 C296.745753,64.002401 298.398641,64.002401 299.736693,63.2340936 C300.445074,62.84994 300.917327,62.3889556 301.310872,61.697479 C301.704417,61.0828331 301.861835,60.3145258 301.861835,59.5462185 L301.861835,56.4729892 C301.861835,55.7046819 301.704417,55.0132053 301.310872,54.3217287 C300.917327,53.6302521 300.366365,53.1692677 299.736693,52.785114 C299.107022,52.4009604 298.319932,52.2472989 297.532843,52.2472989 L297.611552,52.2472989 Z M318.469422,66 C317.288788,66 316.186863,65.6926771 315.242356,65.1548619 C314.219139,64.6170468 313.43205,63.8487395 312.881087,62.84994 C312.251416,61.8511405 312.015289,60.7755102 312.015289,59.69988 L312.015289,50.3265306 L314.297848,50.3265306 L314.297848,59.69988 C314.297848,60.4681873 314.455266,61.0828331 314.848811,61.7743097 C315.242356,62.3889556 315.714609,62.9267707 316.42299,63.3109244 C317.682333,64.002401 319.335221,64.0792317 320.673273,63.3109244 C321.302945,62.9267707 321.853907,62.4657863 322.247452,61.7743097 C322.640997,61.1596639 322.798414,60.4681873 322.798414,59.69988 L322.798414,50.3265306 L325.080974,50.3265306 L325.080974,59.69988 C325.080974,60.8523409 324.766138,61.9279712 324.215176,62.84994 C323.664213,63.8487395 322.877123,64.6170468 321.853907,65.1548619 C320.830691,65.6926771 319.728766,66 318.62684,66 L318.469422,66 Z M340.429219,65.6926771 L338.146659,65.6926771 L338.146659,52.5546218 L332.794451,52.5546218 L332.794451,50.3265306 L345.781427,50.3265306 L345.781427,52.5546218 L340.429219,52.5546218 L340.429219,65.6926771 L340.429219,65.6926771 Z M359.949037,65.6926771 L353.888448,65.6926771 L353.888448,50.3265306 L359.949037,50.3265306 C361.129672,50.3265306 362.231597,50.6338535 363.176104,51.1716687 C364.19932,51.7094838 364.98641,52.4777911 365.537373,53.4765906 C366.088335,54.4753902 366.403171,55.5510204 366.403171,56.7034814 L366.403171,59.392557 C366.403171,60.545018 366.088335,61.6206483 365.537373,62.542617 C364.98641,63.5414166 364.19932,64.3097239 363.176104,64.847539 C362.152888,65.3853541 361.050963,65.6926771 359.949037,65.6926771 L359.949037,65.6926771 Z M356.249717,63.4645858 L359.949037,63.4645858 C360.736127,63.4645858 361.444507,63.3109244 362.074179,62.9267707 C362.782559,62.542617 363.254813,62.0816327 363.648358,61.3901561 C364.041903,60.7755102 364.19932,60.0840336 364.19932,59.3157263 L364.19932,56.6266507 C364.19932,55.8583433 364.041903,55.1668667 363.648358,54.5522209 C363.254813,53.937575 362.782559,53.3997599 362.074179,53.0156062 C361.444507,52.6314526 360.736127,52.4777911 359.949037,52.4777911 L356.249717,52.4777911 L356.249717,63.3877551 L356.249717,63.4645858 Z M380.964326,66 C379.783692,66 378.681767,65.6926771 377.65855,65.1548619 C376.635334,64.6170468 375.848245,63.7719088 375.218573,62.7731092 C374.66761,61.7743097 374.352775,60.6986795 374.352775,59.5462185 L374.352775,56.4729892 C374.352775,55.3205282 374.66761,54.244898 375.218573,53.2460984 C375.769536,52.2472989 376.635334,51.4789916 377.65855,50.8643457 C379.704983,49.7118848 382.302378,49.7118848 384.348811,50.8643457 L384.348811,50.8643457 C385.372027,51.4021609 386.159117,52.2472989 386.788788,53.2460984 C387.41846,54.244898 387.654587,55.3205282 387.654587,56.4729892 L387.654587,59.5462185 C387.654587,60.6986795 387.339751,61.7743097 386.788788,62.7731092 C386.159117,63.7719088 385.372027,64.5402161 384.348811,65.1548619 C383.325595,65.6926771 382.223669,66 381.043035,66 L380.964326,66 Z M380.964326,52.2472989 C380.177237,52.2472989 379.468856,52.4009604 378.760476,52.785114 C378.052095,53.1692677 377.579841,53.7070828 377.186297,54.3217287 C376.792752,54.9363745 376.635334,55.7046819 376.635334,56.4729892 L376.635334,59.5462185 C376.635334,60.3145258 376.792752,61.0060024 377.186297,61.697479 C377.579841,62.3889556 378.130804,62.84994 378.760476,63.2340936 C380.098528,64.002401 381.751416,64.002401 383.089468,63.2340936 C383.719139,62.84994 384.270102,62.3121248 384.663647,61.697479 C385.057191,61.0828331 385.214609,60.3145258 385.214609,59.5462185 L385.214609,56.4729892 C385.214609,55.7046819 385.057191,55.0132053 384.663647,54.3217287 C384.270102,53.7070828 383.719139,53.1692677 383.089468,52.785114 C382.459796,52.4009604 381.672707,52.2472989 380.885617,52.2472989 L380.964326,52.2472989 Z M401.743488,66 C400.562854,66 399.460929,65.6926771 398.437712,65.1548619 C397.414496,64.6170468 396.627407,63.7719088 395.997735,62.7731092 C395.446772,61.7743097 395.131937,60.6986795 395.131937,59.5462185 L395.131937,56.4729892 C395.131937,55.3205282 395.446772,54.244898 395.997735,53.2460984 C396.548698,52.2472989 397.414496,51.4789916 398.437712,50.8643457 C400.484145,49.7118848 403.08154,49.7118848 405.127973,50.8643457 C406.151189,51.4021609 406.938279,52.2472989 407.56795,53.2460984 C408.197622,54.244898 408.433749,55.3205282 408.433749,56.4729892 L408.433749,59.5462185 C408.433749,60.6986795 408.118913,61.7743097 407.56795,62.7731092 C406.938279,63.7719088 406.151189,64.5402161 405.127973,65.1548619 C404.104757,65.6926771 403.002831,66 401.822197,66 L401.743488,66 Z M401.743488,52.2472989 C400.956399,52.2472989 400.248018,52.4009604 399.539638,52.785114 C398.831257,53.1692677 398.359003,53.7070828 397.965459,54.3217287 C397.571914,54.9363745 397.414496,55.7046819 397.414496,56.4729892 L397.414496,59.5462185 C397.414496,60.3145258 397.571914,61.0060024 397.965459,61.697479 C398.359003,62.3889556 398.909966,62.84994 399.539638,63.2340936 C400.87769,64.002401 402.530578,64.002401 403.86863,63.2340936 C404.498301,62.84994 405.049264,62.3121248 405.442809,61.697479 C405.836353,61.0828331 405.993771,60.3145258 405.993771,59.5462185 L405.993771,56.4729892 C405.993771,55.7046819 405.836353,55.0132053 405.442809,54.3217287 C405.049264,53.7070828 404.498301,53.1692677 403.86863,52.785114 C403.238958,52.4009604 402.451869,52.2472989 401.664779,52.2472989 L401.743488,52.2472989 Z M430,65.6926771 L427.166478,65.6926771 L423.703284,60.9291717 L419.059456,60.9291717 L419.059456,65.6926771 L416.776897,65.6926771 L416.776897,50.3265306 L422.994904,50.3265306 C423.624575,50.3265306 424.175538,50.3265306 424.647792,50.4801921 C425.120045,50.5570228 425.592299,50.7106843 425.985844,50.8643457 C426.930351,51.3253301 427.717441,51.939976 428.268403,52.785114 C428.819366,53.6302521 429.055493,54.5522209 429.055493,55.6278511 C429.055493,56.8571429 428.661948,57.9327731 427.953567,58.8547419 C427.402605,59.5462185 426.772933,60.0072029 426.064553,60.3913565 L430,65.6926771 L430,65.6926771 Z M419.059456,58.7010804 L423.624575,58.7010804 C424.175538,58.7010804 424.726501,58.547419 425.198754,58.3169268 C425.671008,58.0096038 426.064553,57.6254502 426.379388,57.1644658 C426.694224,56.7034814 426.772933,56.1656663 426.772933,55.6278511 C426.772933,55.0132053 426.615515,54.4753902 426.30068,53.937575 C425.985844,53.3997599 425.51359,53.092437 424.883918,52.785114 C424.490374,52.6314526 423.781993,52.5546218 422.916195,52.5546218 L418.980747,52.5546218 L418.980747,58.7010804 L419.059456,58.7010804 Z" id="Combined-Shape"></path>
        </g>
    </g>
</svg>