<?xml version="1.0" encoding="UTF-8"?>
<svg width="57px" height="12px" viewBox="0 0 57 12" version="1.1" xmlns="http://www.w3.org/2000/svg" xmlns:xlink="http://www.w3.org/1999/xlink">
    <title>Ruckus Labs</title>
    <g id="Page-1" stroke="none" stroke-width="1" fill="none" fill-rule="evenodd">
        <g id="Medium-Copy-7" transform="translate(-280, -786)" fill="#E29359" fill-rule="nonzero">
            <g id="Group-4" transform="translate(52, 786)">
                <g id="Untitled" transform="translate(228, 0)">
                    <path d="M56.5616071,0.0121890349 C56.827624,0.0121890349 57.0323198,0.241798429 56.9957638,0.499193855 L56.6724585,2.77512258 C56.6505863,2.92903751 56.5450387,3.05927651 56.3967109,3.11544797 L54.4759456,3.84289403 C54.1642557,3.96097396 53.8374437,3.70837366 53.883336,3.38491684 L54.0033482,2.53930521 C54.0216262,2.41065031 53.9192783,2.29586702 53.7862479,2.29586702 L52.3728389,2.29586702 C52.2634778,2.29586702 52.1708168,2.37464407 52.1557824,2.48052213 L51.9234724,4.11613049 C51.8925708,4.33370926 52.0352442,4.53882927 52.2537033,4.59089062 L55.9060985,5.46137695 C56.1245575,5.5134383 56.2672309,5.71855831 56.2363732,5.93609426 L55.4280221,11.6304329 C55.3979533,11.8421462 55.2126751,11.9998288 54.9938654,11.9998288 L48.6153782,11.9998288 C48.3490544,11.9998288 48.144271,11.7697056 48.1813529,11.5120961 L48.5367434,9.04316362 C48.5600182,8.88141382 48.6755158,8.74667932 48.8344509,8.69585962 L50.722123,8.0924874 C51.0300871,7.9940589 51.3371307,8.2447326 51.2926412,8.55821385 L51.1770999,9.37180087 C51.1588219,9.50049862 51.2611698,9.61528192 51.3941563,9.61528192 L52.8077846,9.61528192 C52.9171894,9.61528192 53.0098504,9.53650485 53.0248848,9.43062682 L53.2457108,7.8752511 C53.2764371,7.65904237 53.1356923,7.4549071 52.9190742,7.40139009 L49.2852637,6.50328898 C49.0686456,6.44977196 48.9279008,6.24559385 48.9586271,6.02938512 L49.7608855,0.38149924 C49.7909544,0.169828749 49.9762325,0.0121890349 50.1950422,0.0121890349 L56.5616071,0.0121890349 Z M43.2748695,0.0121890349 C43.407856,0.0121890349 43.5102477,0.126629816 43.4920136,0.255327529 C43.3025713,1.59111218 42.3901191,8.02629757 42.2012028,9.37479787 C42.1833194,9.50251087 42.2849221,9.6159669 42.4169004,9.61588125 L44.2626253,9.61528192 C44.3722931,9.6152391 44.4647349,9.53624797 44.4792433,9.43007017 C44.5516345,8.90070371 45.5008921,2.16159191 45.7269218,0.544165355 L45.755202,0.341380439 C45.76643,0.260610729 45.7731399,0.211837464 45.7746564,0.19984109 C45.7882445,0.0925501822 45.8815191,0.0121890349 45.9921513,0.0121890349 L48.2619514,0.0121890349 C48.395157,0.0121890349 48.4975487,0.127314834 48.478964,0.256140988 L46.8375405,11.6316317 C46.8070771,11.8429168 46.6219743,12 46.4035152,12 L39.6176088,12 C39.3517235,12 39.1470715,11.7706047 39.1834083,11.5133377 L40.7826654,0.196972578 C40.7976121,0.0910945192 40.890317,0.0121890349 40.9997656,0.0121890349 L43.2748695,0.0121890349 Z M33.1663341,0 C33.4323948,0 33.6371344,0.229652207 33.6004908,0.487090447 L33.0352324,4.43544725 C33.0168229,4.56418777 33.1191708,4.67914232 33.2522888,4.67914232 L33.5418435,4.67914232 C33.6171032,4.67914232 33.6871468,4.64138071 33.7272531,4.57917254 L36.5441652,0.212098627 C36.6244217,0.0876822743 36.7644652,0.012201879 36.9150284,0.012201879 L38.8510911,0.012201879 C39.1978466,0.012201879 39.4074516,0.386692531 39.219938,0.671617109 C38.4279801,1.8751077 36.7500006,4.42350224 35.8837473,5.72691981 C35.7605354,5.91234556 35.7542236,6.0615938 35.8328583,6.25845078 C36.3629634,7.5850305 37.4140127,10.2423857 37.8785889,11.4177905 C37.989484,11.6982626 37.7774683,11.9999273 37.4696356,11.9999273 L35.3760842,11.9999273 C35.1938305,11.9999273 35.0306437,11.8898106 34.9661229,11.7233513 L33.307824,7.44336027 C33.2756074,7.3600878 33.1939921,7.30502949 33.1028653,7.30502949 L32.8042811,7.30502949 C32.6945256,7.30502949 32.6016893,7.38436311 32.5870494,7.49062649 L32.0187227,11.6271063 C31.9894429,11.8403609 31.8026306,11.9992422 31.5823744,11.9982575 L29.6814212,11.9899945 C29.4161933,11.9888385 29.2127687,11.7596573 29.2491931,11.5030325 L30.8301722,0.369310205 C30.860241,0.157639715 31.0455192,0 31.2643289,0 L33.1663341,0 Z M15.7184598,0.0121890349 C15.8514463,0.0121890349 15.953838,0.126629816 15.9356038,0.255327529 C15.7461617,1.59111218 14.8337094,8.02629757 14.6447931,9.37479787 C14.6269096,9.50251087 14.7285124,9.6159669 14.8604907,9.61588125 L16.7062156,9.61528192 C16.8158834,9.6152391 16.9083252,9.53624797 16.9228337,9.43007017 C17.0042737,8.8345329 18.195498,0.379786696 18.2182468,0.19984109 C18.2318347,0.0925501822 18.3251094,0.0121890349 18.4357416,0.0121890349 L20.7055417,0.0121890349 C20.8387474,0.0121890349 20.9411391,0.127314834 20.9225543,0.256140988 L19.2811307,11.6316317 C19.2506675,11.8429168 19.0655646,12 18.8471056,12 L12.0611992,12 C11.7953138,12 11.5906619,11.7706047 11.6269987,11.5133377 L13.2262557,0.196972578 C13.2412024,0.0910945192 13.3339073,0.0121890349 13.443356,0.0121890349 L15.7184598,0.0121890349 Z M3.40527699,0 C3.55089904,0 3.66262219,0.116016452 3.64151893,0.245361723 L2.9357533,4.56938529 C2.89354677,4.82807583 3.11694532,5.06010874 3.40818943,5.06010874 L4.76118542,5.06010874 C4.91143872,5.06010874 5.0243555,5.18319675 4.99546981,5.31558494 L3.57988022,11.8047061 C3.51953062,12.0813969 3.07001205,12.0571394 3.04704674,11.7759056 L2.63854107,6.76696916 C2.62942179,6.65502422 2.52557655,6.56836546 2.40053257,6.5683226 L0.477318821,6.56755116 C0.187698043,6.56746544 -0.0351275708,6.33774687 0.00459621551,6.08021349 L0.913707531,0.184889165 C0.930084046,0.078901473 1.03096909,0 1.15018819,0 L3.40527699,0 Z M25.6501514,0.00896409973 L25.8018488,0.0090393862 L27.1523606,0.00992493351 L27.2962377,0.0100384303 L28.2294852,0.0108482031 C28.3106676,0.010923882 28.3892655,0.0109984697 28.4649486,0.0110713839 L29.0584842,0.0116667088 C29.3243257,0.0119235905 29.5284955,0.241404543 29.4919395,0.498628716 L29.1270375,3.06710284 C29.1068309,3.20932966 29.0149589,3.3321619 28.8824546,3.39428446 L26.8892348,4.32809212 C26.5722851,4.47704066 26.2138264,4.21913147 26.2656359,3.87936266 C26.3431748,3.37120792 26.4332936,2.76676537 26.4598996,2.53351681 C26.4743642,2.4067029 26.3727176,2.29585846 26.2420542,2.29585846 L24.5716577,2.29585846 C24.4622529,2.29585846 24.3695918,2.37467832 24.3545575,2.48051356 L23.3758749,9.37170667 C23.3575969,9.50040442 23.4599448,9.61518772 23.5929752,9.61518772 L25.2500906,9.61518772 C25.3595831,9.61518772 25.4522879,9.53645347 25.4671908,9.4304898 C25.5006785,9.19295985 25.6036839,8.46876765 25.680127,7.9313712 C25.7228633,7.6313334 26.0622989,7.46842764 26.3316032,7.61861775 L28.0560884,8.5803399 C28.2113417,8.66695185 28.2972086,8.83692187 28.2730572,9.00997447 L27.9104344,11.6088891 C27.8808478,11.8210306 27.6953504,11.9792268 27.4761463,11.9792268 L21.0537393,11.9792268 C20.7876348,11.9792268 20.582939,11.7495318 20.6195826,11.4920935 L22.201789,0.379606878 C22.2318139,0.168707032 22.4157333,0.0114526408 22.6337102,0.0104679278 C22.6805453,0.0102571531 22.7356971,0.0100672082 22.798383,0.00989671303 L23.2586473,0.00909609944 L23.362028,0.00899257465 L25.6501514,0.00896409973 Z M5.47591221,0.0122917876 L11.3690907,0.0157596901 C11.6303737,0.0158881309 11.8334916,0.23761982 11.8044747,0.49124765 C11.6946754,1.45005846 11.1911326,5.35966894 11.1059668,6.00846639 C11.0398242,6.51263947 10.8683531,6.89325247 10.5835761,7.1512901 C10.298843,7.40937054 9.90080391,7.54487565 9.38152537,7.55900415 C9.30911477,7.56050258 9.26054883,7.63037438 9.2856646,7.69575075 C9.52025387,8.3054166 10.4914411,10.8286367 10.824258,11.6666704 C10.8799686,11.8069706 10.7739388,11.9579314 10.6199129,11.9579741 L8.6004378,11.9583167 C8.51667466,11.9580598 8.44036306,11.9111789 8.40385092,11.8375395 L6.56115053,7.77290093 C6.52818881,7.700289 6.51661715,7.62014198 6.52766283,7.54140773 L6.81471908,5.49628717 C6.82817552,5.40714923 6.87380472,5.32948534 6.93911451,5.27387046 C7.00438046,5.21825558 7.08941469,5.18473253 7.18163737,5.18396188 L7.29545863,5.18391642 C7.48839696,5.18432711 7.86573429,5.18618818 8.15326296,5.18768666 C8.37123984,5.18884263 8.5567372,5.0333436 8.5885593,4.82270063 C8.67157722,4.27301669 8.82529631,3.25071329 8.89148273,2.78220395 C8.92781957,2.52493697 8.72312378,2.29584134 8.45723838,2.29584134 L5.21918775,2.29584134 C5.0864204,2.29584134 4.98411634,2.18144337 5.00204366,2.05295972 L5.2602584,0.197546281 C5.27494215,0.0919679168 5.36685801,0.013019619 5.47591221,0.0122917876 Z" id="Ruckus-Labs"></path>
                </g>
            </g>
        </g>
    </g>
</svg>